<?xml version="1.0" encoding="utf-8"?>
<svg version="1.1" xmlns:xlink="http://www.w3.org/1999/xlink" width="12px" height="12px" xmlns="http://www.w3.org/2000/svg">
  <g transform="matrix(1 0 0 1 -412 -698 )">
    <path d="M 418 698  C 421.36 698  424 700.64  424 704  C 424 707.36  421.36 710  418 710  C 414.64 710  412 707.36  412 704  C 412 700.64  414.64 698  418 698  Z " fill-rule="nonzero" fill="#e1e1e1" stroke="none" />
    <path d="M 418 698.5  C 421.08 698.5  423.5 700.92  423.5 704  C 423.5 707.08  421.08 709.5  418 709.5  C 414.92 709.5  412.5 707.08  412.5 704  C 412.5 700.92  414.92 698.5  418 698.5  Z " stroke-width="1" stroke="#c9c9c9" fill="none" />
  </g>
</svg>