<?xml version="1.0" encoding="utf-8"?>
<svg version="1.1" xmlns:xlink="http://www.w3.org/1999/xlink" width="6px" height="5px" xmlns="http://www.w3.org/2000/svg">
  <g transform="matrix(1 0 0 1 -415 -702 )">
    <path d="M 0.0832182484236341 2.36286919831223  C -0.0560222579054539 2.53164556962026  0.0832182484236341 2.77059669784712  0.0832182484236341 2.77059669784712  L 1.7524727947262 4.75163566508349  C 1.7524727947262 4.75163566508349  1.8201552137316 4.81719962323653  1.8987341772152 4.80309423347402  C 1.97004809886386 4.79029296178813  2.02712477396022 4.75163566508349  2.02712477396022 4.75163566508349  L 3.46822388273512 3.16510514811632  L 5.99095840867994 0.387783805505314  C 5.99095840867994 0.387783805505314  6.03039492619467 0.189696648748736  5.94303797468353 0.0984528832630202  C 5.83797499764523 -0.0112847102803294  5.62929475587703 0.0502310628892625  5.62929475587703 0.0502310628892625  C 5.62929475587703 0.0502310628892625  3.2576641992884 2.2446950561134  2.07184892099411 3.34192705272547  C 2.01414400640112 3.39532127003079  1.8987341772152 3.50210970464136  1.8987341772152 3.50210970464136  L 1.74326186970183 3.37166383343995  L 0.444881901226552 2.28034152404765  C 0.444881901226552 2.28034152404765  0.222458754752779 2.19409282700421  0.0832182484236341 2.36286919831223  Z " fill-rule="nonzero" fill="#c9c9c9" stroke="none" transform="matrix(1 0 0 1 415 702 )" />
  </g>
</svg>