<?xml version="1.0" encoding="utf-8"?>
<svg version="1.1" xmlns:xlink="http://www.w3.org/1999/xlink" width="12px" height="12px" viewBox="192 575.5  12 12" xmlns="http://www.w3.org/2000/svg">
  <path d="M 198 575.5  C 201.36 575.5  204 578.14  204 581.5  C 204 584.86  201.36 587.5  198 587.5  C 194.64 587.5  192 584.86  192 581.5  C 192 578.14  194.64 575.5  198 575.5  Z " fill-rule="nonzero" fill="#ffffff" stroke="none" />
  <path d="M 198 576  C 201.08 576  203.5 578.42  203.5 581.5  C 203.5 584.58  201.08 587  198 587  C 194.92 587  192.5 584.58  192.5 581.5  C 192.5 578.42  194.92 576  198 576  Z " stroke-width="1" stroke="#797979" fill="none" />
  <path d="M 198 584.5  C 196.32 584.5  195 583.18  195 581.5  C 195 579.82  196.32 578.5  198 578.5  C 199.68 578.5  201 579.82  201 581.5  C 201 583.18  199.68 584.5  198 584.5  " fill-rule="nonzero" fill="#797979" stroke="none" />
</svg>