<?xml version="1.0" encoding="utf-8"?>
<svg version="1.1" xmlns:xlink="http://www.w3.org/1999/xlink" width="65px" height="47px" xmlns="http://www.w3.org/2000/svg">
  <g transform="matrix(1 0 0 1 -760 -493 )">
    <path d="M 0.901531024589385 22.5111187136504  C -0.606907793975981 24.1190557646254  0.901531024589385 26.3955496213813  0.901531024589385 26.3955496213813  L 18.9851219428674 45.2689614038359  C 18.9851219428674 45.2689614038359  19.7183481487588 45.8935910051587  20.5696202531646 45.7592085756642  C 21.3421877376915 45.6372505143325  21.960518384569 45.2689614038359  21.960518384569 45.2689614038359  L 37.5724253962972 30.1540422894863  L 64.9020494273659 3.69442679569257  C 64.9020494273659 3.69442679569257  65.3292783671091 1.80724509956559  64.3829113924051 0.93796327973541  C 63.2447291411568 -0.107509739832748  60.9840265220012 0.478552693742587  60.9840265220012 0.478552693742587  C 60.9840265220012 0.478552693742587  35.2913621589579 21.3852704670264  22.4450299774363 31.8386293536684  C 21.8198934026791 32.3473175050228  20.5696202531646 33.3646938077317  20.5696202531646 33.3646938077317  L 18.8853369217699 32.1219324672321  L 4.81955392995408 21.7248753304539  C 4.81955392995408 21.7248753304539  2.40996984315483 20.9031816626754  0.901531024589385 22.5111187136504  Z " fill-rule="nonzero" fill="#ffffff" stroke="none" transform="matrix(1 0 0 1 760 493 )" />
  </g>
</svg>