<?xml version="1.0" encoding="utf-8"?>
<svg version="1.1" xmlns:xlink="http://www.w3.org/1999/xlink" width="210px" height="59px" xmlns="http://www.w3.org/2000/svg">
  <g transform="matrix(1 0 0 1 -71 -32 )">
    <path d="M 94.1435175174864 33.5  C 94.1435175174864 33.5  91.363602495051 33.8905118721993  91.363602495051 33.8905118721993  C 91.363602495051 33.8905118721993  72.6634785631721 61.5  72.6634785631721 61.5  C 72.6634785631721 61.5  91.363602495051 89.1094881278007  91.363602495051 89.1094881278007  C 91.363602495051 89.1094881278007  94.1435175174863 89.5  94.1435175174863 89.5  C 94.1435175174863 89.5  279.5 89.5  279.5 89.5  C 279.5 89.5  279.5 33.5  279.5 33.5  C 279.5 33.5  94.1435175174864 33.5  94.1435175174864 33.5  Z " fill-rule="nonzero" fill="#ffffff" stroke="none" />
    <path d="M 94.2956783449908 33  C 94.2956783449908 33  91.109068330034 33.4476428354344  91.109068330034 33.4476428354344  C 91.109068330034 33.4476428354344  72.1089857087814 61.5  72.1089857087814 61.5  C 72.1089857087814 61.5  91.109068330034 89.5523571645656  91.109068330034 89.5523571645656  C 91.109068330034 89.5523571645656  94.2956783449909 90  94.2956783449909 90  C 94.2956783449909 90  280 90  280 90  C 280 90  280 33  280 33  C 280 33  94.2956783449908 33  94.2956783449908 33  Z " stroke-width="2" stroke="#797979" fill="none" />
  </g>
</svg>